HIERARCHY
ROOT Hips
{
	OFFSET 0.000000 83.214638 0.000000
	CHANNELS 6 Xposition Yposition Zposition Xrotation Yrotation Zrotation
	JOINT Pelvis
	{
		OFFSET 0.000000 0.000000 0.000000
		CHANNELS 3 Xrotation Yrotation Zrotation
		JOINT LeftUpLeg
		{
			OFFSET 8.479700 -4.795502 -0.379100
			CHANNELS 3 Xrotation Yrotation Zrotation
			JOINT LeftLeg
			{
				OFFSET 0.024144 -32.555107 0.112900
				CHANNELS 3 Xrotation Yrotation Zrotation
				JOINT LeftFoot
				{
					OFFSET -0.024144 -32.638630 -3.012600
					CHANNELS 3 Xrotation Yrotation Zrotation
					JOINT LeftToeBase
					{
						OFFSET 0.970200 -13.225400 11.864200
						CHANNELS 3 Xrotation Yrotation Zrotation
						End Site
						{
							OFFSET 0.000000 12.319262 0.000000
						}
					}
					JOINT LFootTongue
					{
						OFFSET 1.142400 -1.059800 6.665200
						CHANNELS 3 Xrotation Yrotation Zrotation
						End Site
						{
							OFFSET 0.000000 12.319262 0.000000
						}
					}
				}
				JOINT LeftPantLeg
				{
					OFFSET 0.918482 -16.533964 -2.284700
					CHANNELS 3 Xrotation Yrotation Zrotation
					End Site
					{
						OFFSET 0.350399 24.744368 0.000000
					}
				}
			}
		}
		JOINT RightUpLeg
		{
			OFFSET -8.479700 -4.795502 -0.379100
			CHANNELS 3 Xrotation Yrotation Zrotation
			JOINT RightLeg
			{
				OFFSET -0.023144 -32.555092 0.112900
				CHANNELS 3 Xrotation Yrotation Zrotation
				JOINT RightFoot
				{
					OFFSET 0.023144 -32.638641 -3.012700
					CHANNELS 3 Xrotation Yrotation Zrotation
					JOINT RightToeBase
					{
						OFFSET -0.970200 -13.225400 11.864200
						CHANNELS 3 Xrotation Yrotation Zrotation
						End Site
						{
							OFFSET 0.000000 12.319244 0.000000
						}
					}
					JOINT RFootTongue
					{
						OFFSET -1.142200 -1.059800 6.665200
						CHANNELS 3 Xrotation Yrotation Zrotation
						End Site
						{
							OFFSET 0.000000 12.319243 0.000000
						}
					}
				}
				JOINT RightPantLeg
				{
					OFFSET -0.919482 -16.533978 -2.284800
					CHANNELS 3 Xrotation Yrotation Zrotation
					End Site
					{
						OFFSET -0.350400 24.744419 0.000000
					}
				}
			}
		}
	}
	JOINT Spine
	{
		OFFSET 0.000000 7.722000 1.166200
		CHANNELS 3 Xrotation Yrotation Zrotation
		JOINT Spine1
		{
			OFFSET 0.000000 12.024101 0.248800
			CHANNELS 3 Xrotation Yrotation Zrotation
			JOINT Spine2
			{
				OFFSET 0.000000 11.502998 -0.491200
				CHANNELS 3 Xrotation Yrotation Zrotation
				JOINT Neck
				{
					OFFSET 0.000000 18.430702 -3.123100
					CHANNELS 3 Xrotation Yrotation Zrotation
					JOINT Head
					{
						OFFSET 0.000000 9.051102 1.034000
						CHANNELS 3 Xrotation Yrotation Zrotation
						JOINT HairB
						{
							OFFSET 0.208400 24.786102 24.822300
							CHANNELS 3 Xrotation Yrotation Zrotation
							End Site
							{
								OFFSET 0.000000 32.263779 0.000000
							}
						}
						JOINT HairA
						{
							OFFSET -7.081100 24.428299 23.196600
							CHANNELS 3 Xrotation Yrotation Zrotation
							End Site
							{
								OFFSET 0.000000 32.263779 0.000000
							}
						}
						JOINT Hat
						{
							OFFSET 16.728800 15.048294 -15.439601
							CHANNELS 3 Xrotation Yrotation Zrotation
							End Site
							{
								OFFSET 0.000000 32.263779 0.000000
							}
						}
					}
				}
				JOINT LeftShoulder
				{
					OFFSET 6.197800 13.665199 -4.064700
					CHANNELS 3 Xrotation Yrotation Zrotation
					JOINT LeftArm
					{
						OFFSET 7.778100 -0.187103 -1.709300
						CHANNELS 3 Xrotation Yrotation Zrotation
						JOINT LeftForeArm
						{
							OFFSET 22.049376 0.000000 0.000000
							CHANNELS 3 Xrotation Yrotation Zrotation
							JOINT LeftHand
							{
								OFFSET 23.009392 0.000000 0.000000
								CHANNELS 3 Xrotation Yrotation Zrotation
								JOINT LeftHandThumb1
								{
									OFFSET 3.507191 -2.063065 3.133727
									CHANNELS 3 Xrotation Yrotation Zrotation
									JOINT LeftHandThumb2
									{
										OFFSET 3.101337 -1.790558 1.790558
										CHANNELS 3 Xrotation Yrotation Zrotation
										JOINT LeftHandThumb3
										{
											OFFSET 3.058640 -1.765907 1.765906
											CHANNELS 3 Xrotation Yrotation Zrotation
											End Site
											{
												OFFSET -0.415260 3.926476 -0.049563
											}
										}
									}
								}
								JOINT LeftHandIndex1
								{
									OFFSET 11.334419 -0.901459 3.706815
									CHANNELS 3 Xrotation Yrotation Zrotation
									JOINT LeftHandIndex2
									{
										OFFSET 3.283112 0.000000 0.000000
										CHANNELS 3 Xrotation Yrotation Zrotation
										JOINT LeftHandIndex3
										{
											OFFSET 3.323853 0.000000 0.000000
											CHANNELS 3 Xrotation Yrotation Zrotation
											End Site
											{
												OFFSET -1.135597 3.097809 0.402452
											}
										}
									}
								}
								JOINT LeftHandMiddle1
								{
									OFFSET 11.335861 0.000000 0.000000
									CHANNELS 3 Xrotation Yrotation Zrotation
									JOINT LeftHandMiddle2
									{
										OFFSET 3.410492 0.000000 0.000000
										CHANNELS 3 Xrotation Yrotation Zrotation
										JOINT LeftHandMiddle3
										{
											OFFSET 3.312172 0.000000 0.000000
											CHANNELS 3 Xrotation Yrotation Zrotation
											End Site
											{
												OFFSET -1.150200 3.080154 0.400270
											}
										}
									}
								}
								JOINT LeftHandRing1
								{
									OFFSET 11.514786 -0.013176 -3.003090
									CHANNELS 3 Xrotation Yrotation Zrotation
									JOINT LeftHandRing2
									{
										OFFSET 3.053307 0.000000 0.000000
										CHANNELS 3 Xrotation Yrotation Zrotation
										JOINT LeftHandRing3
										{
											OFFSET 3.295807 0.000000 0.000000
											CHANNELS 3 Xrotation Yrotation Zrotation
											End Site
											{
												OFFSET -1.281006 3.013344 0.375733
											}
										}
									}
								}
								JOINT LeftHandPinky1
								{
									OFFSET 10.518692 -0.960396 -5.730441
									CHANNELS 3 Xrotation Yrotation Zrotation
									JOINT LeftHandPinky2
									{
										OFFSET 2.861649 0.000000 0.000000
										CHANNELS 3 Xrotation Yrotation Zrotation
										JOINT LeftHandPinky3
										{
											OFFSET 2.863380 0.000000 0.000000
											CHANNELS 3 Xrotation Yrotation Zrotation
											End Site
											{
												OFFSET -0.843597 2.711159 0.369971
											}
										}
									}
								}
							}
							JOINT LSleeve
							{
								OFFSET 6.676277 -0.344902 -1.011730
								CHANNELS 3 Xrotation Yrotation Zrotation
								End Site
								{
									OFFSET 0.000000 14.885353 0.000000
								}
							}
						}
					}
				}
				JOINT RightShoulder
				{
					OFFSET -6.197800 13.665199 -4.064700
					CHANNELS 3 Xrotation Yrotation Zrotation
					JOINT RightArm
					{
						OFFSET -7.778100 -0.187103 -1.709300
						CHANNELS 3 Xrotation Yrotation Zrotation
						JOINT RightForeArm
						{
							OFFSET -22.049376 0.000000 0.000000
							CHANNELS 3 Xrotation Yrotation Zrotation
							JOINT RightHand
							{
								OFFSET -23.009392 0.000000 0.000000
								CHANNELS 3 Xrotation Yrotation Zrotation
								JOINT RightHandThumb1
								{
									OFFSET -3.507191 -2.063065 3.133727
									CHANNELS 3 Xrotation Yrotation Zrotation
									JOINT RightHandThumb2
									{
										OFFSET -3.101337 -1.790558 1.790558
										CHANNELS 3 Xrotation Yrotation Zrotation
										JOINT RightHandThumb3
										{
											OFFSET -3.058640 -1.765907 1.765906
											CHANNELS 3 Xrotation Yrotation Zrotation
											End Site
											{
												OFFSET 0.415260 3.926476 -0.049563
											}
										}
									}
								}
								JOINT RightHandIndex1
								{
									OFFSET -11.334419 -0.901459 3.706815
									CHANNELS 3 Xrotation Yrotation Zrotation
									JOINT RightHandIndex2
									{
										OFFSET -3.283112 0.000000 0.000000
										CHANNELS 3 Xrotation Yrotation Zrotation
										JOINT RightHandIndex3
										{
											OFFSET -3.323853 0.000000 0.000000
											CHANNELS 3 Xrotation Yrotation Zrotation
											End Site
											{
												OFFSET 1.135597 3.097809 0.402452
											}
										}
									}
								}
								JOINT RightHandMiddle1
								{
									OFFSET -11.335861 0.000000 0.000000
									CHANNELS 3 Xrotation Yrotation Zrotation
									JOINT RightHandMiddle2
									{
										OFFSET -3.410492 0.000000 0.000000
										CHANNELS 3 Xrotation Yrotation Zrotation
										JOINT RightHandMiddle3
										{
											OFFSET -3.312172 0.000000 0.000000
											CHANNELS 3 Xrotation Yrotation Zrotation
											End Site
											{
												OFFSET 1.150200 3.080154 0.400270
											}
										}
									}
								}
								JOINT RightHandRing1
								{
									OFFSET -11.514786 -0.013176 -3.003090
									CHANNELS 3 Xrotation Yrotation Zrotation
									JOINT RightHandRing2
									{
										OFFSET -3.053307 0.000000 0.000000
										CHANNELS 3 Xrotation Yrotation Zrotation
										JOINT RightHandRing3
										{
											OFFSET -3.295807 0.000000 0.000000
											CHANNELS 3 Xrotation Yrotation Zrotation
											End Site
											{
												OFFSET 1.281006 3.013344 0.375733
											}
										}
									}
								}
								JOINT RightHandPinky1
								{
									OFFSET -10.518692 -0.960396 -5.730441
									CHANNELS 3 Xrotation Yrotation Zrotation
									JOINT RightHandPinky2
									{
										OFFSET -2.861649 0.000000 0.000000
										CHANNELS 3 Xrotation Yrotation Zrotation
										JOINT RightHandPinky3
										{
											OFFSET -2.863380 0.000000 0.000000
											CHANNELS 3 Xrotation Yrotation Zrotation
											End Site
											{
												OFFSET 0.843597 2.711159 0.369971
											}
										}
									}
								}
							}
							JOINT RSleeve
							{
								OFFSET -6.676277 -0.344902 -1.011730
								CHANNELS 3 Xrotation Yrotation Zrotation
								End Site
								{
									OFFSET 0.000000 14.885353 0.000000
								}
							}
						}
					}
				}
				JOINT Backpack
				{
					OFFSET 0.000000 -2.471497 36.677502
					CHANNELS 3 Xrotation Yrotation Zrotation
					End Site
					{
						OFFSET 0.000000 20.427315 0.000000
					}
				}
				JOINT Hood
				{
					OFFSET 0.000000 18.754097 -10.431000
					CHANNELS 3 Xrotation Yrotation Zrotation
					JOINT Hood1
					{
						OFFSET 0.000000 -5.011002 -7.685901
						CHANNELS 3 Xrotation Yrotation Zrotation
						End Site
						{
							OFFSET 0.000000 9.175140 0.000000
						}
					}
				}
				JOINT LHoodieString
				{
					OFFSET 5.250500 16.397697 3.089900
					CHANNELS 3 Xrotation Yrotation Zrotation
					JOINT LHoodieString1
					{
						OFFSET 0.257700 -6.364304 3.694600
						CHANNELS 3 Xrotation Yrotation Zrotation
						JOINT LHoodieString2
						{
							OFFSET 0.000000 -9.643799 2.679100
							CHANNELS 3 Xrotation Yrotation Zrotation
							End Site
							{
								OFFSET 0.000000 10.009018 0.000000
							}
						}
					}
				}
				JOINT RHoodieString
				{
					OFFSET -5.250500 16.397697 3.089900
					CHANNELS 3 Xrotation Yrotation Zrotation
					JOINT RHoodieString1
					{
						OFFSET -0.257700 -6.364304 3.694600
						CHANNELS 3 Xrotation Yrotation Zrotation
						JOINT RHoodieString2
						{
							OFFSET 0.000000 -9.643799 2.679100
							CHANNELS 3 Xrotation Yrotation Zrotation
							End Site
							{
								OFFSET 0.000000 10.009018 0.000000
							}
						}
					}
				}
			}
			JOINT LBackpack_Strap
			{
				OFFSET 15.223200 -7.719803 -6.610900
				CHANNELS 3 Xrotation Yrotation Zrotation
				End Site
				{
					OFFSET 0.000000 16.040596 0.000000
				}
			}
			JOINT RBackpack_Strap
			{
				OFFSET -15.223000 -7.719803 -6.610900
				CHANNELS 3 Xrotation Yrotation Zrotation
				End Site
				{
					OFFSET 0.000000 16.040596 0.000000
				}
			}
		}
	}
	JOINT BoyFacialAnim_Joint
	{
		OFFSET 1.000000 -82.208099 -1.550900
		CHANNELS 3 Xrotation Yrotation Zrotation
		End Site
		{
			OFFSET 0.000000 30.012791 0.000000
		}
	}
}
MOTION
Frames: 4
Frame Time: 0.033333
-0.240002 43.292328 -0.862960 -0.741119 -23.404847 6.775724 0.000000 -0.000001 0.000000 -83.541676 -9.832350 45.968891 77.573272 4.292338 -4.438940 21.227239 -1.295288 -10.175495 -0.000000 -0.000002 -0.000000 -0.000000 -0.000002 0.000000 0.000001 -0.000001 0.000000 -18.842948 -13.010719 -15.840759 105.052688 1.280765 -0.976137 23.517984 2.102744 14.257866 -0.000001 0.000000 -0.000002 -0.000001 0.000000 -0.000002 -0.000000 0.000000 -0.000008 3.796900 -3.673087 -9.602467 2.639429 -2.950658 -5.510826 2.702583 -2.994146 -5.452461 -0.883155 2.788951 6.564405 -1.062777 20.547156 11.246200 0.000001 -0.000002 0.000001 0.000001 -0.000002 0.000001 0.000001 -0.000002 0.000001 1.041955 -1.252770 2.905744 -5.852505 -12.220275 -52.313180 -0.001052 -96.644670 -0.001055 -70.561646 5.117206 54.064376 -1.540034 3.690177 6.142369 3.939054 7.948692 0.746802 -0.000000 -0.000001 0.000001 0.911563 3.428805 -29.767426 0.911537 3.428804 -29.767453 0.000000 -0.000000 -0.000004 1.063367 3.681068 -32.215554 1.234499 3.939023 -34.790518 0.000000 -0.000002 0.000002 1.287880 4.014539 -35.559918 1.668663 4.498484 -40.687297 0.000003 -0.000001 0.000001 5.185533 7.816639 -46.911112 2.220561 0.979983 -47.440855 -0.000000 0.000002 0.000000 -0.000000 0.000000 0.000005 3.825808 21.658342 7.031835 22.504310 12.053864 27.365609 -0.000003 102.443986 0.000000 -2.593433 1.916059 7.720630 -1.849258 -3.581799 -6.586144 4.637218 -8.634133 -0.225408 -0.000004 0.000002 -0.000000 0.135476 -1.368668 11.306179 0.135474 -1.368682 11.306173 -0.000003 -0.000001 0.000005 0.080764 -1.058938 8.723912 0.082951 -1.072953 8.840406 0.000002 0.000000 0.000003 0.023693 -0.574787 4.722036 0.024215 -0.581082 4.773809 0.000001 -0.000001 -0.000002 0.002448 -0.185346 1.521050 0.002475 -0.185356 1.521039 0.000001 -0.000000 0.000007 -0.000001 -0.000001 -0.000003 0.000002 -0.000001 0.000001 0.000002 -0.000001 0.000001 0.000002 -0.000001 0.000001 0.000002 -0.000001 0.000001 0.000002 -0.000001 0.000002 0.000000 0.000001 -0.000000 0.000002 -0.000001 0.000001 0.000002 -0.000001 0.000002 0.000000 0.000001 -0.000000 0.000001 0.000003 0.000000 0.000001 0.000003 0.000000 0.000000 -0.000001 0.000000 
-0.242960 43.286087 -0.857974 -0.803135 -23.551819 6.717057 0.000000 -0.000001 0.000000 -83.461756 -9.862504 46.137043 77.631425 4.143114 -4.423203 21.162981 -1.286294 -10.237124 -0.000000 -0.000000 -0.000000 -0.000000 -0.000000 0.000000 -0.000000 -0.000001 -0.000001 -18.779329 -12.892579 -15.783042 105.094475 1.314736 -0.947389 23.481424 2.094130 14.230275 0.000002 -0.000000 -0.000003 0.000002 -0.000000 -0.000003 0.000000 0.000000 0.000000 3.831377 -3.636032 -9.596614 2.673013 -2.921601 -5.485544 2.738939 -2.959010 -5.428726 -0.873043 2.792253 6.642288 -1.133467 20.650232 11.324273 0.000001 0.000001 -0.000000 0.000001 0.000001 -0.000000 0.000001 0.000001 -0.000000 0.981995 -1.182674 2.948985 -5.850495 -12.177504 -52.343114 -0.000156 -96.695705 -0.000132 -70.642208 5.197331 53.919655 -1.540035 3.690178 6.142366 3.939052 7.948698 0.746805 -0.000000 0.000002 0.000002 0.911562 3.428800 -29.767429 0.911538 3.428804 -29.767453 -0.000000 -0.000001 0.000001 1.063368 3.681067 -32.215554 1.234497 3.939024 -34.790521 -0.000000 -0.000000 0.000002 1.287880 4.014544 -35.559918 1.668661 4.498481 -40.687297 0.000001 0.000002 -0.000000 5.185538 7.816635 -46.911116 2.220560 0.979978 -47.440858 -0.000001 0.000002 0.000000 -0.000003 0.000002 0.000004 3.843198 21.676592 7.104649 22.051073 11.854265 27.290659 0.000077 103.896972 -0.000053 -2.922166 2.042692 8.544287 -1.849265 -3.581796 -6.586147 4.637216 -8.634133 -0.225411 0.000000 0.000001 -0.000000 0.135484 -1.368679 11.306186 0.135476 -1.368673 11.306162 -0.000000 0.000001 0.000005 0.090667 -1.121444 9.243442 0.092794 -1.134484 9.351877 0.000002 -0.000003 0.000001 0.032381 -0.671647 5.520134 0.032942 -0.677505 5.568288 -0.000001 0.000002 0.000001 0.006864 -0.309680 2.541986 0.006872 -0.309689 2.541973 -0.000002 0.000002 0.000001 -0.000002 0.000002 -0.000003 0.000001 0.000000 0.000000 0.000001 0.000000 0.000000 0.000001 0.000000 0.000000 0.000001 0.000000 0.000000 0.000001 0.000000 0.000001 0.000000 0.000001 -0.000000 0.000001 0.000000 0.000000 0.000001 0.000000 0.000001 0.000000 0.000001 -0.000000 -0.000001 0.000000 -0.000000 -0.000001 0.000000 -0.000000 0.000000 -0.000001 0.000000 
-0.241138 43.283363 -0.853264 -0.881990 -23.721136 6.656722 0.000000 -0.000000 0.000000 -83.378988 -9.864566 46.294530 77.696899 4.036433 -4.347857 21.092775 -1.282577 -10.316469 -0.000000 -0.000000 0.000000 -0.000000 -0.000000 -0.000000 0.000002 0.000001 0.000000 -18.709001 -12.750230 -15.727048 105.144731 1.370466 -0.922518 23.437862 2.091582 14.252031 0.000001 -0.000000 -0.000000 0.000001 -0.000000 -0.000000 0.000000 -0.000000 -0.000001 3.855951 -3.600101 -9.580498 2.719836 -2.889079 -5.472157 2.785862 -2.918780 -5.419178 -0.777270 2.831760 6.605145 -1.161902 20.747126 11.372610 0.000000 0.000001 -0.000001 0.000000 0.000001 -0.000001 0.000000 0.000001 -0.000001 0.943236 -1.099199 3.000865 -5.936555 -12.097320 -52.370154 -0.001543 -96.778979 -0.001541 -70.741751 5.377702 53.862445 -1.540036 3.690184 6.142371 3.939053 7.948702 0.746806 0.000001 -0.000001 0.000000 0.911561 3.428800 -29.767429 0.911537 3.428803 -29.767457 0.000002 -0.000001 -0.000004 1.063364 3.681067 -32.215557 1.234498 3.939021 -34.790515 -0.000002 -0.000000 -0.000001 1.287875 4.014540 -35.559915 1.668659 4.498487 -40.687300 0.000003 0.000000 -0.000002 5.185533 7.816638 -46.911116 2.220559 0.979977 -47.440858 -0.000001 -0.000000 -0.000000 -0.000002 -0.000002 -0.000002 3.895321 21.702827 7.185901 21.587935 11.765470 27.193830 -0.000041 105.204598 0.000059 -2.900778 2.141112 9.477712 -1.849264 -3.581797 -6.586152 4.637210 -8.634129 -0.225409 0.000004 0.000001 -0.000001 0.135479 -1.368673 11.306157 0.135486 -1.368674 11.306181 -0.000001 0.000000 0.000005 0.102097 -1.189572 9.810279 0.104175 -1.201488 9.909857 0.000001 0.000001 -0.000002 0.043392 -0.777201 6.390853 0.044004 -0.782523 6.435122 -0.000002 0.000002 0.000004 0.014206 -0.445219 3.655847 0.014213 -0.445229 3.655841 -0.000002 0.000000 -0.000001 -0.000001 -0.000000 -0.000001 -0.000000 -0.000002 -0.000000 -0.000000 -0.000002 -0.000000 -0.000000 -0.000002 -0.000000 -0.000000 -0.000002 -0.000000 -0.000000 -0.000002 0.000001 -0.000000 -0.000000 -0.000000 -0.000000 -0.000002 -0.000000 -0.000000 -0.000002 0.000001 -0.000000 -0.000000 -0.000000 0.000000 -0.000000 -0.000001 0.000000 -0.000000 -0.000001 0.000000 -0.000000 0.000000 
-0.239448 43.285103 -0.844767 -0.964542 -23.899920 6.612427 0.000000 -0.000002 -0.000000 -83.312598 -9.817138 46.422118 77.762899 3.987738 -4.197338 21.019996 -1.288436 -10.414118 0.000000 0.000000 0.000000 0.000000 0.000000 0.000000 -0.000001 -0.000001 0.000000 -18.639166 -12.597974 -15.690965 105.202699 1.475804 -0.902533 23.355485 2.094901 14.352712 -0.000002 -0.000001 -0.000001 -0.000002 -0.000001 -0.000001 0.000000 0.000000 -0.000003 3.868955 -3.579891 -9.561654 2.762966 -2.845310 -5.484443 2.823790 -2.869285 -5.437244 -0.676880 2.902156 6.472743 -1.115146 20.886754 11.337615 0.000000 -0.000001 -0.000001 0.000000 -0.000001 -0.000001 0.000000 -0.000001 -0.000001 0.963522 -0.990777 3.085198 -6.106878 -12.005741 -52.386625 0.001402 -96.894655 0.001380 -70.862864 5.637715 53.895500 -1.540034 3.690181 6.142369 3.939054 7.948696 0.746804 -0.000000 -0.000001 -0.000001 0.911561 3.428807 -29.767429 0.911536 3.428804 -29.767450 -0.000000 0.000001 -0.000003 1.063364 3.681066 -32.215554 1.234498 3.939024 -34.790525 -0.000002 -0.000002 -0.000002 1.287881 4.014545 -35.559918 1.668663 4.498486 -40.687297 0.000001 -0.000002 -0.000001 5.185534 7.816640 -46.911112 2.220566 0.979981 -47.440851 -0.000002 0.000000 0.000001 0.000001 0.000000 0.000002 3.954092 21.743229 7.382557 21.180587 11.719560 26.982389 0.000054 106.415290 -0.000057 -2.633998 2.189256 10.356957 -1.849259 -3.581799 -6.586144 4.637215 -8.634132 -0.225408 -0.000001 0.000001 0.000001 0.135485 -1.368672 11.306168 0.135491 -1.368661 11.306165 0.000001 0.000002 0.000004 0.115241 -1.263193 10.424398 0.117237 -1.273984 10.514374 -0.000001 -0.000002 -0.000001 0.057129 -0.891303 7.334244 0.057744 -0.896117 7.374244 -0.000004 0.000001 -0.000001 0.025126 -0.591881 4.862582 0.025130 -0.591855 4.862615 0.000002 0.000001 -0.000001 -0.000000 -0.000003 -0.000000 0.000001 0.000003 0.000001 0.000001 0.000003 0.000001 0.000001 0.000003 0.000001 0.000001 0.000003 0.000001 0.000001 0.000003 0.000002 0.000000 0.000001 0.000000 0.000001 0.000003 0.000001 0.000001 0.000003 0.000002 0.000000 0.000001 0.000000 0.000000 -0.000001 -0.000000 0.000000 -0.000001 -0.000000 0.000000 -0.000002 -0.000000 
